<?xml version="1.0" encoding="UTF-8"?>
<svg version="1.1" xmlns="http://www.w3.org/2000/svg" width="250" height="261">
<path d="M0,0 L250,0 L250,261 L0,261 Z " fill="#E9EAEA" transform="translate(0,0)"/>
<path d="M0,0 L2,0 L2,92 L1,92 L1,91 L-1,91 L-1,90 L-3,90 L-3,89 L-4,89 L-4,88 L-5,88 L-5,86 L-7,86 L-7,85 L-8,85 L-8,84 L-9,84 L-9,83 L-12,83 L-12,82 L-14,82 L-14,81 L-15,81 L-15,80 L-16,80 L-16,79 L-19,79 L-19,77 L-21,77 L-21,76 L-22,76 L-22,75 L-26,75 L-26,74 L-30,74 L-30,73 L-35,73 L-35,72 L-57,72 L-57,73 L-62,73 L-62,74 L-63,74 L-63,75 L-66,75 L-66,76 L-69,76 L-69,77 L-71,77 L-71,78 L-73,78 L-73,79 L-76,79 L-76,80 L-79,80 L-79,81 L-80,81 L-80,83 L-83,83 L-83,84 L-84,84 L-84,85 L-85,85 L-85,86 L-87,86 L-87,87 L-88,87 L-88,88 L-90,88 L-90,89 L-91,89 L-91,91 L-92,91 L-92,92 L-93,92 L-93,93 L-94,93 L-94,94 L-96,94 L-96,95 L-97,95 L-97,96 L-98,96 L-98,97 L-99,97 L-99,98 L-100,98 L-100,99 L-101,99 L-101,100 L-102,100 L-102,101 L-103,101 L-103,102 L-104,102 L-104,103 L-105,103 L-105,104 L-107,104 L-107,105 L-108,105 L-108,106 L-109,106 L-109,109 L-110,109 L-110,110 L-111,110 L-111,111 L-112,111 L-112,113 L-113,113 L-113,114 L-114,114 L-114,115 L-115,115 L-115,117 L-116,117 L-116,118 L-117,118 L-117,119 L-119,119 L-119,122 L-120,122 L-120,123 L-121,123 L-121,125 L-122,125 L-122,126 L-123,126 L-123,129 L-124,129 L-124,130 L-125,130 L-125,132 L-126,132 L-126,135 L-127,135 L-127,137 L-128,137 L-128,138 L-129,138 L-129,140 L-130,140 L-130,142 L-131,142 L-131,143 L-132,143 L-132,144 L-133,144 L-133,149 L-134,149 L-134,151 L-136,151 L-136,54 L-130,54 L-130,53 L-126,53 L-126,52 L-124,52 L-124,51 L-123,51 L-123,50 L-121,50 L-121,49 L-119,49 L-119,48 L-117,48 L-117,47 L-112,47 L-112,46 L-108,46 L-108,44 L-105,44 L-105,43 L-101,43 L-101,42 L-98,42 L-98,41 L-97,41 L-97,40 L-94,40 L-94,38 L-91,38 L-91,37 L-89,37 L-89,36 L-83,36 L-83,35 L-80,35 L-80,34 L-79,34 L-79,33 L-76,33 L-76,32 L-73,32 L-73,31 L-71,31 L-71,30 L-69,30 L-69,29 L-66,29 L-66,28 L-64,28 L-64,27 L-62,27 L-62,26 L-60,26 L-60,25 L-56,25 L-56,24 L-55,24 L-55,23 L-53,23 L-53,22 L-48,22 L-48,21 L-46,21 L-46,20 L-45,20 L-45,19 L-42,19 L-42,18 L-35,18 L-35,16 L-33,16 L-33,15 L-30,15 L-30,13 L-28,13 L-28,12 L-26,12 L-26,11 L-21,11 L-21,10 L-19,10 L-19,9 L-17,9 L-17,8 L-13,8 L-13,7 L-12,7 L-12,6 L-10,6 L-10,5 L-5,5 L-5,4 L-3,4 L-3,3 L-2,3 L-2,2 L-1,2 L-1,1 L0,1 Z " fill="#019B9B" transform="translate(162,78)"/>
<path d="M0,0 L2,0 L2,51 L-3,51 L-3,52 L-6,52 L-6,53 L-7,53 L-7,54 L-10,54 L-10,55 L-14,55 L-14,56 L-15,56 L-15,57 L-17,57 L-17,58 L-21,58 L-21,59 L-26,59 L-26,60 L-28,60 L-28,61 L-30,61 L-30,62 L-34,62 L-34,63 L-37,63 L-37,64 L-40,64 L-40,65 L-41,65 L-41,66 L-43,66 L-43,67 L-44,67 L-44,68 L-46,68 L-46,69 L-50,69 L-50,70 L-51,70 L-51,71 L-53,71 L-53,72 L-54,72 L-54,73 L-62,73 L-62,75 L-65,75 L-65,76 L-69,76 L-69,77 L-73,77 L-73,78 L-74,78 L-74,79 L-76,79 L-76,80 L-80,80 L-80,81 L-83,81 L-83,82 L-84,82 L-84,83 L-87,83 L-87,84 L-91,84 L-91,85 L-94,85 L-94,87 L-98,87 L-98,88 L-101,88 L-101,89 L-104,89 L-104,90 L-105,90 L-105,91 L-108,91 L-108,92 L-110,92 L-110,93 L-112,93 L-112,94 L-116,94 L-116,95 L-119,95 L-119,97 L-122,97 L-122,98 L-126,98 L-126,99 L-130,99 L-130,101 L-133,101 L-133,102 L-137,102 L-137,101 L-136,101 L-136,55 L-135,55 L-135,54 L-132,54 L-132,53 L-131,53 L-131,52 L-128,52 L-128,51 L-126,51 L-126,50 L-123,50 L-123,48 L-117,48 L-117,47 L-114,47 L-114,46 L-111,46 L-111,45 L-108,45 L-108,44 L-107,44 L-107,43 L-103,43 L-103,42 L-101,42 L-101,40 L-98,40 L-98,39 L-96,39 L-96,38 L-94,38 L-94,37 L-91,37 L-91,36 L-89,36 L-89,35 L-87,35 L-87,34 L-83,34 L-83,33 L-80,33 L-80,32 L-78,32 L-78,31 L-76,31 L-76,30 L-73,30 L-73,29 L-72,29 L-72,28 L-69,28 L-69,27 L-64,27 L-64,26 L-60,26 L-60,25 L-58,25 L-58,24 L-57,24 L-57,23 L-53,23 L-53,22 L-49,22 L-49,21 L-47,21 L-47,20 L-44,20 L-44,19 L-39,19 L-39,17 L-37,17 L-37,15 L-34,15 L-34,14 L-33,14 L-33,13 L-30,13 L-30,12 L-24,12 L-24,11 L-23,11 L-23,10 L-21,10 L-21,9 L-19,9 L-19,8 L-16,8 L-16,7 L-15,7 L-15,6 L-12,6 L-12,5 L-7,5 L-7,4 L-3,4 L-3,3 L-1,3 L-1,1 L0,1 Z " fill="#0263A1" transform="translate(162,20)"/>
<path d="M0,0 L18,0 L18,1 L22,1 L22,2 L26,2 L26,3 L27,3 L27,4 L29,4 L29,5 L31,5 L31,6 L32,6 L32,17 L29,17 L29,16 L27,16 L27,14 L24,14 L24,13 L20,13 L20,12 L18,12 L18,11 L14,11 L14,10 L6,10 L6,11 L2,11 L2,12 L1,12 L1,13 L-1,13 L-1,14 L-3,14 L-3,15 L-4,15 L-4,16 L-5,16 L-5,17 L-7,17 L-7,20 L-8,20 L-8,21 L-9,21 L-9,23 L-10,23 L-10,26 L-11,26 L-11,38 L-10,38 L-10,42 L-9,42 L-9,44 L-7,44 L-7,46 L-6,46 L-6,48 L-4,48 L-4,49 L-1,49 L-1,50 L0,50 L0,51 L2,51 L2,52 L15,52 L15,51 L18,51 L18,50 L21,50 L21,42 L20,42 L20,41 L7,41 L7,31 L32,31 L32,58 L31,58 L31,59 L29,59 L29,60 L25,60 L25,62 L19,62 L19,63 L0,63 L0,62 L-3,62 L-3,61 L-4,61 L-4,60 L-7,60 L-7,59 L-10,59 L-10,57 L-11,57 L-11,56 L-12,56 L-12,55 L-13,55 L-13,54 L-14,54 L-14,52 L-15,52 L-15,51 L-16,51 L-16,50 L-17,50 L-17,49 L-18,49 L-18,45 L-19,45 L-19,44 L-20,44 L-20,42 L-21,42 L-21,39 L-22,39 L-22,23 L-21,23 L-21,19 L-19,19 L-19,17 L-18,17 L-18,15 L-17,15 L-17,13 L-16,13 L-16,12 L-15,12 L-15,11 L-14,11 L-14,10 L-13,10 L-13,9 L-12,9 L-12,8 L-11,8 L-11,6 L-10,6 L-10,5 L-9,5 L-9,3 L-4,3 L-4,2 L-3,2 L-3,1 L0,1 Z " fill="#0E5287" transform="translate(132,176)"/>
<path d="M0,0 L8,0 L8,1 L9,1 L9,2 L10,2 L10,5 L11,5 L11,7 L12,7 L12,9 L13,9 L13,12 L14,12 L14,16 L16,16 L16,18 L17,18 L17,22 L18,22 L18,23 L19,23 L19,25 L20,25 L20,27 L21,27 L21,30 L22,30 L22,31 L23,31 L23,34 L24,34 L24,35 L26,35 L26,37 L27,37 L27,44 L28,44 L28,45 L30,45 L30,49 L31,49 L31,54 L32,54 L32,57 L33,57 L33,60 L25,60 L25,59 L22,59 L22,57 L21,57 L21,52 L19,52 L19,50 L18,50 L18,47 L17,47 L17,45 L16,45 L16,44 L-7,44 L-7,45 L-8,45 L-8,48 L-9,48 L-9,50 L-10,50 L-10,52 L-11,52 L-11,55 L-12,55 L-12,57 L-13,57 L-13,59 L-14,59 L-14,60 L-24,60 L-24,57 L-22,57 L-22,54 L-21,54 L-21,52 L-20,52 L-20,51 L-19,51 L-19,45 L-18,45 L-18,43 L-17,43 L-17,42 L-16,42 L-16,41 L-15,41 L-15,34 L-14,34 L-14,31 L-13,31 L-13,30 L-12,30 L-12,29 L-11,29 L-11,24 L-10,24 L-10,21 L-9,21 L-9,20 L-8,20 L-8,19 L-7,19 L-7,16 L-5,16 L-5,14 L-4,14 L-4,9 L-3,9 L-3,7 L-2,7 L-2,5 L-1,5 L-1,2 L0,2 Z " fill="#0E5287" transform="translate(197,177)"/>
<path d="M0,0 L1,0 L1,260 L-246,260 L-246,259 L-245,259 L-245,258 L-244,258 L-244,257 L-2,257 L-2,1 L0,1 Z " fill="#A7A9AB" transform="translate(249,1)"/>
<path d="M0,0 L8,0 L8,1 L7,1 L7,2 L6,2 L6,3 L5,3 L5,4 L4,4 L4,258 L3,258 L3,259 L1,259 L1,111 L0,111 Z " fill="#F3F4F6" transform="translate(0,0)"/>
<path d="M0,0 L11,0 L11,59 L10,59 L10,60 L0,60 Z " fill="#15578A" transform="translate(89,178)"/>
<path d="M0,0 L2,0 L2,92 L1,92 L1,91 L-1,91 L-1,90 L-3,90 L-3,89 L-4,89 L-4,88 L-5,88 L-5,86 L-7,86 L-7,85 L-8,85 L-8,84 L-9,84 L-9,83 L-12,83 L-12,82 L-14,82 L-14,81 L-15,81 L-15,80 L-16,80 L-16,79 L-19,79 L-19,77 L-21,77 L-21,76 L-22,76 L-22,75 L-26,75 L-26,74 L-30,74 L-30,73 L-35,73 L-35,72 L-57,72 L-57,73 L-62,73 L-62,74 L-63,74 L-63,75 L-66,75 L-66,76 L-69,76 L-69,77 L-71,77 L-71,78 L-73,78 L-73,79 L-76,79 L-76,80 L-79,80 L-79,81 L-80,81 L-80,83 L-83,83 L-83,84 L-84,84 L-84,85 L-85,85 L-85,86 L-87,86 L-87,87 L-88,87 L-88,88 L-90,88 L-90,89 L-91,89 L-91,91 L-92,91 L-92,92 L-93,92 L-93,93 L-94,93 L-94,94 L-96,94 L-96,95 L-97,95 L-97,96 L-98,96 L-98,97 L-99,97 L-99,98 L-100,98 L-100,99 L-101,99 L-101,100 L-102,100 L-102,101 L-103,101 L-103,102 L-104,102 L-104,103 L-105,103 L-105,104 L-107,104 L-107,105 L-108,105 L-108,100 L-107,100 L-107,99 L-106,99 L-106,98 L-105,98 L-105,97 L-103,97 L-103,96 L-101,96 L-101,94 L-99,94 L-99,92 L-97,92 L-97,90 L-95,90 L-95,89 L-94,89 L-94,87 L-92,87 L-92,86 L-90,86 L-90,85 L-89,85 L-89,84 L-88,84 L-88,83 L-86,83 L-86,82 L-85,82 L-85,81 L-82,81 L-82,80 L-81,80 L-81,79 L-79,79 L-79,78 L-78,78 L-78,77 L-75,77 L-75,76 L-74,76 L-74,75 L-70,75 L-70,74 L-69,74 L-69,72 L-62,72 L-62,71 L-59,71 L-59,70 L-56,70 L-56,69 L-37,69 L-37,70 L-30,70 L-30,72 L-23,72 L-23,73 L-21,73 L-21,74 L-19,74 L-19,75 L-18,75 L-18,76 L-12,76 L-12,77 L-11,77 L-11,78 L-10,78 L-10,79 L-9,79 L-9,81 L-8,81 L-8,82 L-7,82 L-7,83 L-5,83 L-5,85 L-4,85 L-4,86 L-1,86 L-1,4 L-2,4 L-2,6 L-6,6 L-6,7 L-12,7 L-12,6 L-10,6 L-10,5 L-5,5 L-5,4 L-3,4 L-3,3 L-2,3 L-2,2 L-1,2 L-1,1 L0,1 Z " fill="#105D8C" transform="translate(162,78)"/>
<path d="M0,0 L7,0 L7,1 L6,1 L6,2 L2,2 L2,3 L0,3 L0,4 L-2,4 L-2,5 L-4,5 L-4,6 L-7,6 L-7,7 L-9,7 L-9,8 L-11,8 L-11,9 L-14,9 L-14,10 L-17,10 L-17,11 L-18,11 L-18,12 L-21,12 L-21,13 L-27,13 L-27,14 L-29,14 L-29,15 L-32,15 L-32,17 L-35,17 L-35,18 L-36,18 L-36,19 L-39,19 L-39,20 L-43,20 L-43,21 L-46,21 L-46,23 L-50,23 L-50,24 L-55,24 L-55,25 L-57,25 L-57,26 L-59,26 L-59,27 L-61,27 L-61,28 L-62,28 L-62,29 L-64,29 L-64,30 L-68,30 L-68,31 L-74,31 L-74,128 L-72,128 L-72,130 L-73,130 L-73,131 L-74,131 L-74,132 L-76,132 L-76,29 L-75,29 L-75,27 L-72,27 L-72,26 L-71,26 L-71,25 L-67,25 L-67,24 L-63,24 L-63,23 L-62,23 L-62,22 L-60,22 L-60,21 L-56,21 L-56,20 L-53,20 L-53,18 L-49,18 L-49,17 L-44,17 L-44,16 L-40,16 L-40,17 L-36,17 L-36,12 L-34,12 L-34,11 L-29,11 L-29,10 L-25,10 L-25,9 L-23,9 L-23,8 L-21,8 L-21,7 L-17,7 L-17,6 L-14,6 L-14,5 L-11,5 L-11,3 L-7,3 L-7,2 L-2,2 L-2,1 L0,1 Z " fill="#C7E3E0" transform="translate(100,101)"/>
<path d="M0,0 L2,0 L2,51 L-3,51 L-3,52 L-6,52 L-6,53 L-7,53 L-7,54 L-10,54 L-10,55 L-14,55 L-14,56 L-15,56 L-15,57 L-17,57 L-17,58 L-21,58 L-21,59 L-26,59 L-26,60 L-28,60 L-28,61 L-30,61 L-30,62 L-34,62 L-34,63 L-37,63 L-37,64 L-40,64 L-40,65 L-41,65 L-41,66 L-43,66 L-43,67 L-44,67 L-44,68 L-46,68 L-46,69 L-50,69 L-50,70 L-51,70 L-51,71 L-53,71 L-53,72 L-54,72 L-54,73 L-62,73 L-62,75 L-65,75 L-65,76 L-69,76 L-69,77 L-73,77 L-73,78 L-74,78 L-74,79 L-76,79 L-76,80 L-80,80 L-80,81 L-83,81 L-83,82 L-84,82 L-84,83 L-87,83 L-87,84 L-91,84 L-91,85 L-94,85 L-94,83 L-91,83 L-91,81 L-90,81 L-90,80 L-83,80 L-83,79 L-82,79 L-82,78 L-80,78 L-80,77 L-76,77 L-76,75 L-75,75 L-75,74 L-69,74 L-69,73 L-66,73 L-66,72 L-65,72 L-65,71 L-64,71 L-64,70 L-59,70 L-59,69 L-58,69 L-58,68 L-56,68 L-56,67 L-54,67 L-54,66 L-48,66 L-48,64 L-45,64 L-45,63 L-44,63 L-44,62 L-40,62 L-40,61 L-38,61 L-38,60 L-36,60 L-36,59 L-30,59 L-30,57 L-29,57 L-29,56 L-26,56 L-26,55 L-19,55 L-19,53 L-17,53 L-17,52 L-14,52 L-14,51 L-12,51 L-12,50 L-9,50 L-9,49 L-7,49 L-7,48 L-1,48 L-1,1 L0,1 Z " fill="#0C578E" transform="translate(162,20)"/>
<path d="M0,0 L4,0 L4,1 L11,1 L11,2 L9,2 L9,3 L5,3 L5,4 L0,4 L0,5 L-3,5 L-3,6 L-4,6 L-4,7 L-7,7 L-7,8 L-9,8 L-9,9 L-11,9 L-11,10 L-12,10 L-12,11 L-18,11 L-18,12 L-21,12 L-21,13 L-22,13 L-22,14 L-25,14 L-25,16 L-27,16 L-27,18 L-32,18 L-32,19 L-35,19 L-35,20 L-37,20 L-37,21 L-41,21 L-41,22 L-45,22 L-45,23 L-46,23 L-46,24 L-48,24 L-48,25 L-52,25 L-52,26 L-57,26 L-57,27 L-60,27 L-60,28 L-61,28 L-61,29 L-64,29 L-64,30 L-66,30 L-66,31 L-68,31 L-68,32 L-71,32 L-71,33 L-75,33 L-75,34 L-77,34 L-77,35 L-79,35 L-79,36 L-82,36 L-82,37 L-84,37 L-84,38 L-86,38 L-86,39 L-89,39 L-89,41 L-91,41 L-91,42 L-95,42 L-95,43 L-96,43 L-96,44 L-99,44 L-99,45 L-102,45 L-102,46 L-105,46 L-105,47 L-109,47 L-109,46 L-111,46 L-111,45 L-107,45 L-107,43 L-105,43 L-105,42 L-99,42 L-99,41 L-95,41 L-95,40 L-94,40 L-94,39 L-93,39 L-93,38 L-87,38 L-87,36 L-85,36 L-85,35 L-84,35 L-84,34 L-83,34 L-83,33 L-82,33 L-82,32 L-81,32 L-81,31 L-78,31 L-78,30 L-74,30 L-74,29 L-71,29 L-71,28 L-70,28 L-70,27 L-67,27 L-67,26 L-64,26 L-64,25 L-62,25 L-62,24 L-60,24 L-60,23 L-57,23 L-57,22 L-54,22 L-54,21 L-51,21 L-51,20 L-49,20 L-49,19 L-44,19 L-44,20 L-39,20 L-39,19 L-36,19 L-36,18 L-33,18 L-33,17 L-32,17 L-32,16 L-29,16 L-29,15 L-27,15 L-27,13 L-25,13 L-25,12 L-22,12 L-22,11 L-20,11 L-20,10 L-19,10 L-19,9 L-18,9 L-18,7 L-14,7 L-14,5 L-11,5 L-11,4 L-7,4 L-7,3 L-3,3 L-3,1 L0,1 Z " fill="#BED1E1" transform="translate(150,21)"/>
<path d="M0,0 L4,0 L4,1 L5,1 L5,96 L2,96 L2,95 L1,95 L1,94 L0,94 L0,92 L1,92 L1,93 L3,93 L3,94 L4,94 L4,2 L2,2 L2,3 L1,3 L1,4 L0,4 L0,5 L-1,5 L-1,6 L-3,6 L-3,7 L-8,7 L-8,8 L-10,8 L-10,9 L-11,9 L-11,10 L-15,10 L-15,11 L-17,11 L-17,12 L-19,12 L-19,13 L-24,13 L-24,14 L-26,14 L-26,15 L-28,15 L-28,17 L-31,17 L-31,18 L-33,18 L-33,20 L-40,20 L-40,21 L-43,21 L-43,22 L-44,22 L-44,23 L-46,23 L-46,24 L-51,24 L-51,25 L-53,25 L-53,23 L-50,23 L-50,21 L-46,21 L-46,20 L-42,20 L-42,19 L-38,19 L-38,18 L-35,18 L-35,17 L-33,17 L-33,14 L-30,14 L-30,12 L-28,12 L-28,11 L-27,11 L-27,10 L-22,10 L-22,9 L-21,9 L-21,8 L-19,8 L-19,7 L-17,7 L-17,6 L-11,6 L-11,4 L-8,4 L-8,3 L-3,3 L-3,2 L0,2 Z " fill="#C3DEDD" transform="translate(160,76)"/>
<path d="M0,0 L7,0 L7,1 L6,1 L6,2 L2,2 L2,3 L0,3 L0,4 L-2,4 L-2,5 L-4,5 L-4,6 L-7,6 L-7,7 L-9,7 L-9,8 L-11,8 L-11,9 L-14,9 L-14,10 L-17,10 L-17,11 L-18,11 L-18,12 L-21,12 L-21,13 L-27,13 L-27,14 L-29,14 L-29,15 L-32,15 L-32,17 L-35,17 L-35,18 L-36,18 L-36,19 L-39,19 L-39,20 L-43,20 L-43,21 L-46,21 L-46,23 L-50,23 L-50,24 L-53,24 L-53,22 L-50,22 L-50,19 L-48,19 L-48,18 L-47,18 L-47,17 L-44,17 L-44,16 L-40,16 L-40,17 L-36,17 L-36,12 L-34,12 L-34,11 L-29,11 L-29,10 L-25,10 L-25,9 L-23,9 L-23,8 L-21,8 L-21,7 L-17,7 L-17,6 L-14,6 L-14,5 L-11,5 L-11,3 L-7,3 L-7,2 L-2,2 L-2,1 L0,1 Z " fill="#B5DBD9" transform="translate(100,101)"/>
<path d="M0,0 L2,0 L2,92 L3,92 L3,95 L2,95 L2,97 L0,97 Z " fill="#41B0B1" transform="translate(26,132)"/>
<path d="M0,0 L3,0 L3,1 L4,1 L4,2 L5,2 L5,6 L6,6 L6,9 L7,9 L7,10 L9,10 L9,13 L10,13 L10,17 L9,17 L9,18 L-6,18 L-6,13 L-5,13 L-5,12 L-4,12 L-4,11 L-3,11 L-3,7 L-2,7 L-2,2 L0,2 Z " fill="#2E6795" transform="translate(200,195)"/>
<path d="M0,0 L4,0 L4,1 L11,1 L11,2 L9,2 L9,3 L5,3 L5,4 L0,4 L0,5 L-3,5 L-3,6 L-4,6 L-4,7 L-7,7 L-7,8 L-9,8 L-9,9 L-11,9 L-11,10 L-12,10 L-12,11 L-18,11 L-18,12 L-21,12 L-21,13 L-22,13 L-22,14 L-25,14 L-25,16 L-27,16 L-27,18 L-32,18 L-32,19 L-35,19 L-35,20 L-37,20 L-37,21 L-41,21 L-41,22 L-45,22 L-45,23 L-46,23 L-46,24 L-48,24 L-48,25 L-52,25 L-52,26 L-54,26 L-54,25 L-53,25 L-53,24 L-50,24 L-50,23 L-49,23 L-49,22 L-50,22 L-50,21 L-48,21 L-48,20 L-47,20 L-47,19 L-44,19 L-44,20 L-39,20 L-39,19 L-36,19 L-36,18 L-33,18 L-33,17 L-32,17 L-32,16 L-29,16 L-29,15 L-27,15 L-27,13 L-25,13 L-25,12 L-22,12 L-22,11 L-20,11 L-20,10 L-19,10 L-19,9 L-18,9 L-18,7 L-14,7 L-14,5 L-11,5 L-11,4 L-7,4 L-7,3 L-3,3 L-3,1 L0,1 Z " fill="#CAD5E0" transform="translate(150,21)"/>
<path d="M0,0 L13,0 L13,2 L2,2 L2,62 L12,62 L12,61 L13,61 L13,63 L0,63 Z " fill="#A6BACA" transform="translate(87,176)"/>
<path d="M0,0 L4,0 L4,2 L1,2 L1,3 L-1,3 L-1,4 L-4,4 L-4,5 L-5,5 L-5,6 L-8,6 L-8,7 L-9,7 L-9,53 L-10,53 L-10,54 L-6,54 L-6,53 L-3,53 L-3,51 L1,51 L1,50 L3,50 L3,52 L-1,52 L-1,53 L-2,53 L-2,54 L-5,54 L-5,55 L-8,55 L-8,56 L-11,56 L-11,10 L-12,10 L-12,6 L-11,6 L-11,5 L-10,5 L-10,3 L-6,3 L-6,2 L0,2 Z " fill="#ABC4DA" transform="translate(35,68)"/>
<path d="M0,0 L3,0 L3,1 L2,1 L2,4 L1,4 L1,5 L0,5 L0,6 L-1,6 L-1,8 L-2,8 L-2,9 L-3,9 L-3,10 L-4,10 L-4,12 L-5,12 L-5,13 L-6,13 L-6,14 L-8,14 L-8,17 L-9,17 L-9,18 L-10,18 L-10,20 L-11,20 L-11,21 L-12,21 L-12,24 L-13,24 L-13,25 L-14,25 L-14,27 L-15,27 L-15,30 L-16,30 L-16,32 L-17,32 L-17,33 L-18,33 L-18,35 L-19,35 L-19,37 L-20,37 L-20,38 L-21,38 L-21,39 L-22,39 L-22,41 L-23,41 L-23,37 L-22,37 L-22,32 L-20,32 L-20,31 L-19,31 L-19,28 L-18,28 L-18,26 L-17,26 L-17,25 L-16,25 L-16,24 L-15,24 L-15,21 L-14,21 L-14,19 L-13,19 L-13,18 L-12,18 L-12,15 L-11,15 L-11,14 L-10,14 L-10,13 L-9,13 L-9,12 L-8,12 L-8,10 L-7,10 L-7,8 L-6,8 L-6,7 L-5,7 L-5,6 L-4,6 L-4,5 L-3,5 L-3,4 L-2,4 L-2,3 L0,3 Z " fill="#16668E" transform="translate(51,183)"/>
<path d="M0,0 L2,0 L2,92 L1,92 L1,91 L-1,91 L-1,90 L-3,90 L-3,89 L-4,89 L-4,88 L-5,88 L-5,87 L-3,87 L-3,88 L0,88 L0,82 L1,82 L1,3 L-1,3 L-1,4 L-2,4 L-2,6 L-6,6 L-6,7 L-12,7 L-12,6 L-10,6 L-10,5 L-5,5 L-5,4 L-3,4 L-3,3 L-2,3 L-2,2 L-1,2 L-1,1 L0,1 Z " fill="#3B7595" transform="translate(162,78)"/>
<path d="M0,0 L25,0 L25,27 L24,27 L24,28 L22,28 L22,29 L18,29 L18,28 L20,28 L20,26 L24,26 L24,2 L2,2 L2,8 L14,8 L14,11 L13,11 L13,10 L0,10 Z " fill="#3B719C" transform="translate(139,207)"/>
<path d="M0,0 L4,0 L4,1 L1,1 L1,2 L-1,2 L-1,3 L-3,3 L-3,5 L-5,5 L-5,7 L-8,7 L-8,9 L-11,9 L-11,10 L-15,10 L-15,11 L-19,11 L-19,12 L-20,12 L-20,13 L-22,13 L-22,14 L-26,14 L-26,15 L-29,15 L-29,16 L-30,16 L-30,17 L-33,17 L-33,18 L-37,18 L-37,19 L-40,19 L-40,17 L-37,17 L-37,15 L-36,15 L-36,14 L-29,14 L-29,13 L-28,13 L-28,12 L-26,12 L-26,11 L-22,11 L-22,9 L-21,9 L-21,8 L-15,8 L-15,7 L-12,7 L-12,6 L-11,6 L-11,5 L-10,5 L-10,4 L-5,4 L-5,3 L-4,3 L-4,2 L-2,2 L-2,1 L0,1 Z " fill="#175C8F" transform="translate(108,86)"/>
<path d="M0,0 L22,0 L22,1 L27,1 L27,2 L31,2 L31,3 L35,3 L35,4 L36,4 L36,5 L38,5 L38,6 L35,6 L35,5 L34,5 L34,4 L27,4 L27,3 L20,3 L20,2 L6,2 L6,3 L-5,3 L-5,4 L-8,4 L-8,5 L-10,5 L-10,6 L-12,6 L-12,7 L-15,7 L-15,8 L-18,8 L-18,9 L-19,9 L-19,10 L-23,10 L-23,9 L-22,9 L-22,8 L-19,8 L-19,7 L-16,7 L-16,6 L-14,6 L-14,5 L-12,5 L-12,4 L-9,4 L-9,3 L-6,3 L-6,2 L-5,2 L-5,1 L0,1 Z " fill="#B0C1CE" transform="translate(105,150)"/>
<path d="M0,0 L1,0 L1,96 L3,96 L3,98 L2,98 L2,99 L1,99 L1,100 L-1,100 L-1,96 L0,96 Z " fill="#92D0CE" transform="translate(25,133)"/>
<path d="M0,0 L2,0 L2,1 L3,1 L3,96 L0,96 L0,95 L-1,95 L-1,94 L-2,94 L-2,92 L-1,92 L-1,93 L1,93 L1,94 L2,94 L2,2 L0,2 Z " fill="#B4C1CC" transform="translate(162,76)"/>
<path d="M0,0 L2,0 L2,1 L1,1 L1,46 L5,46 L5,47 L2,47 L2,48 L-2,48 L-2,47 L-1,47 L-1,1 L0,1 Z " fill="#3C82B4" transform="translate(27,74)"/>
<path d="M0,0 L2,0 L2,1 L1,1 L1,2 L-1,2 L-1,3 L-2,3 L-2,4 L-4,4 L-4,5 L-5,5 L-5,7 L-6,7 L-6,8 L-7,8 L-7,9 L-8,9 L-8,10 L-10,10 L-10,11 L-11,11 L-11,12 L-12,12 L-12,13 L-13,13 L-13,14 L-14,14 L-14,15 L-15,15 L-15,16 L-16,16 L-16,17 L-17,17 L-17,18 L-18,18 L-18,19 L-19,19 L-19,20 L-21,20 L-21,21 L-22,21 L-22,16 L-21,16 L-21,15 L-20,15 L-20,14 L-19,14 L-19,13 L-17,13 L-17,12 L-15,12 L-15,10 L-13,10 L-13,8 L-11,8 L-11,6 L-9,6 L-9,5 L-8,5 L-8,3 L-6,3 L-6,2 L-4,2 L-4,1 L0,1 Z " fill="#11648D" transform="translate(76,162)"/>
<path d="M0,0 L2,0 L2,1 L1,1 L1,2 L-1,2 L-1,3 L0,3 L0,4 L-1,4 L-1,5 L-4,5 L-4,6 L-5,6 L-5,7 L-8,7 L-8,8 L-11,8 L-11,9 L-12,9 L-12,10 L-15,10 L-15,11 L-17,11 L-17,12 L-19,12 L-19,13 L-22,13 L-22,14 L-25,14 L-25,12 L-22,12 L-22,9 L-21,9 L-21,8 L-18,8 L-18,7 L-15,7 L-15,6 L-13,6 L-13,5 L-11,5 L-11,4 L-8,4 L-8,3 L-5,3 L-5,2 L-2,2 L-2,1 L0,1 Z " fill="#CDD6E0" transform="translate(101,40)"/>
<path d="M0,0 L4,0 L4,1 L1,1 L1,4 L-1,4 L-1,5 L-4,5 L-4,6 L-8,6 L-8,7 L-12,7 L-12,8 L-16,8 L-16,10 L-19,10 L-19,12 L-26,12 L-26,13 L-28,13 L-28,14 L-33,14 L-33,13 L-32,13 L-32,12 L-29,12 L-29,11 L-24,11 L-24,10 L-23,10 L-23,9 L-22,9 L-22,8 L-18,8 L-18,7 L-15,7 L-15,6 L-14,6 L-14,5 L-11,5 L-11,4 L-6,4 L-6,3 L-5,3 L-5,2 L-3,2 L-3,1 L0,1 Z " fill="#D4E3E2" transform="translate(126,89)"/>
<path d="M0,0 L1,0 L1,82 L-2,82 L-2,81 L-3,81 L-3,79 L-2,79 L-2,80 L-1,80 L-1,79 L0,79 Z " fill="#008292" transform="translate(160,82)"/>
<path d="M0,0 L3,0 L3,1 L2,1 L2,2 L1,2 L1,3 L-1,3 L-1,4 L-4,4 L-4,5 L-6,5 L-6,7 L-8,7 L-8,8 L-11,8 L-11,9 L-12,9 L-12,10 L-15,10 L-15,11 L-18,11 L-18,12 L-23,12 L-23,11 L-26,11 L-26,10 L-23,10 L-23,9 L-21,9 L-21,8 L-20,8 L-20,7 L-15,7 L-15,6 L-13,6 L-13,5 L-11,5 L-11,4 L-8,4 L-8,3 L-3,3 L-3,2 L-1,2 L-1,1 L0,1 Z " fill="#DCDDE2" transform="translate(129,29)"/>
<path d="M0,0 L3,0 L3,1 L4,1 L4,2 L5,2 L5,4 L6,4 L6,5 L7,5 L7,6 L8,6 L8,11 L-3,11 L-3,6 L-1,6 L-1,4 L0,4 Z " fill="#E2E4E6" transform="translate(199,200)"/>
<path d="M0,0 L7,0 L7,1 L9,1 L9,2 L11,2 L11,3 L12,3 L12,4 L18,4 L18,5 L19,5 L19,6 L20,6 L20,7 L21,7 L21,9 L22,9 L22,10 L23,10 L23,12 L24,12 L24,14 L23,14 L23,13 L22,13 L22,12 L21,12 L21,11 L18,11 L18,10 L16,10 L16,9 L15,9 L15,8 L14,8 L14,7 L11,7 L11,5 L9,5 L9,4 L8,4 L8,3 L4,3 L4,2 L0,2 Z " fill="#19688F" transform="translate(132,150)"/>
<path d="M0,0 L12,0 L12,1 L7,1 L7,2 L6,2 L6,3 L3,3 L3,4 L0,4 L0,5 L-2,5 L-2,6 L-4,6 L-4,7 L-7,7 L-7,8 L-10,8 L-10,9 L-11,9 L-11,11 L-14,11 L-14,12 L-17,12 L-17,13 L-20,13 L-20,12 L-19,12 L-19,11 L-17,11 L-17,10 L-16,10 L-16,9 L-13,9 L-13,8 L-12,8 L-12,7 L-10,7 L-10,6 L-9,6 L-9,5 L-6,5 L-6,4 L-5,4 L-5,3 L-1,3 L-1,2 L0,2 Z " fill="#246991" transform="translate(93,150)"/>
<path d="M0,0 L7,0 L7,1 L4,1 L4,3 L1,3 L1,4 L0,4 L0,5 L-3,5 L-3,6 L-7,6 L-7,7 L-10,7 L-10,9 L-14,9 L-14,10 L-17,10 L-17,8 L-14,8 L-14,5 L-12,5 L-12,4 L-11,4 L-11,3 L-8,3 L-8,2 L-4,2 L-4,3 L0,3 Z " fill="#8ACDCB" transform="translate(64,115)"/>
<path d="M0,0 L1,0 L1,4 L0,4 L0,5 L-1,5 L-1,6 L-2,6 L-2,8 L-3,8 L-3,14 L-4,14 L-4,15 L-5,15 L-5,17 L-6,17 L-6,20 L-8,20 L-8,23 L2,23 L2,22 L3,22 L3,24 L2,24 L2,25 L-9,25 L-9,18 L-8,18 L-8,15 L-6,15 L-6,13 L-5,13 L-5,8 L-4,8 L-4,5 L-3,5 L-3,4 L-1,4 L-1,1 L0,1 Z " fill="#7E9DB7" transform="translate(181,214)"/>
<path d="M0,0 L2,0 L2,1 L1,1 L1,2 L-1,2 L-1,5 L-4,5 L-4,7 L-6,7 L-6,8 L-15,8 L-15,9 L-19,9 L-19,10 L-22,10 L-22,11 L-26,11 L-26,10 L-23,10 L-23,9 L-22,9 L-22,8 L-18,8 L-18,7 L-14,7 L-14,6 L-13,6 L-13,5 L-11,5 L-11,4 L-7,4 L-7,3 L-4,3 L-4,1 L0,1 Z " fill="#CAE0DF" transform="translate(51,118)"/>
<path d="M0,0 L37,0 L37,1 L35,1 L35,2 L34,2 L34,3 L32,3 L32,2 L30,2 L30,3 L28,3 L28,2 L26,2 L26,3 L25,3 L25,2 L23,2 L23,3 L21,3 L21,2 L20,2 L20,3 L19,3 L19,2 L18,2 L18,3 L17,3 L17,2 L16,2 L16,3 L14,3 L14,2 L11,2 L11,1 L0,1 Z " fill="#F9F9F9" transform="translate(119,0)"/>
<path d="M0,0 L9,0 L9,1 L7,1 L7,2 L5,2 L5,3 L1,3 L1,4 L-2,4 L-2,6 L-5,6 L-5,7 L-9,7 L-9,8 L-13,8 L-13,9 L-17,9 L-17,7 L-13,7 L-13,5 L-10,5 L-10,4 L-6,4 L-6,3 L-3,3 L-3,2 L-1,2 L-1,1 L0,1 Z " fill="#226193" transform="translate(45,111)"/>
<path d="M0,0 L7,0 L7,1 L6,1 L6,2 L2,2 L2,3 L0,3 L0,4 L-2,4 L-2,5 L-4,5 L-4,6 L-7,6 L-7,7 L-9,7 L-9,8 L-11,8 L-11,9 L-14,9 L-14,10 L-17,10 L-17,9 L-15,9 L-15,8 L-14,8 L-14,7 L-13,7 L-13,6 L-11,6 L-11,3 L-7,3 L-7,2 L-2,2 L-2,1 L0,1 Z " fill="#9BD2D1" transform="translate(100,101)"/>
<path d="M0,0 L2,0 L2,51 L-3,51 L-3,52 L-5,52 L-5,51 L-4,51 L-4,50 L-1,50 L-1,49 L0,49 L0,46 L1,46 L1,2 L-1,2 L-1,1 L0,1 Z " fill="#557E9F" transform="translate(162,20)"/>
<path d="M0,0 L23,0 L23,1 L24,1 L24,3 L25,3 L25,5 L24,5 L24,4 L23,4 L23,3 L22,3 L22,2 L3,2 L3,3 L2,3 L2,4 L1,4 L1,5 L0,5 L0,6 L-2,6 L-2,4 L-1,4 L-1,1 L0,1 Z " fill="#C5D1DA" transform="translate(190,221)"/>
<path d="M0,0 L2,0 L2,10 L15,10 L15,11 L16,11 L16,19 L14,19 L14,12 L2,12 L2,11 L0,11 Z " fill="#B7C8D6" transform="translate(137,207)"/>
<path d="M0,0 L1,0 L1,1 L2,1 L2,3 L3,3 L3,5 L4,5 L4,8 L5,8 L5,9 L6,9 L6,12 L7,12 L7,13 L9,13 L9,15 L10,15 L10,22 L11,22 L11,23 L13,23 L13,27 L14,27 L14,29 L13,29 L13,28 L12,28 L12,26 L11,26 L11,24 L10,24 L10,23 L9,23 L9,19 L7,19 L7,16 L6,16 L6,14 L4,14 L4,9 L3,9 L3,7 L2,7 L2,5 L1,5 L1,2 L0,2 Z " fill="#7698B3" transform="translate(214,199)"/>
<path d="M0,0 L4,0 L4,1 L2,1 L2,3 L-3,3 L-3,4 L-6,4 L-6,5 L-8,5 L-8,6 L-12,6 L-12,7 L-16,7 L-16,8 L-17,8 L-17,9 L-19,9 L-19,10 L-23,10 L-23,11 L-25,11 L-25,10 L-24,10 L-24,9 L-21,9 L-21,8 L-20,8 L-20,7 L-21,7 L-21,6 L-19,6 L-19,5 L-18,5 L-18,4 L-15,4 L-15,5 L-10,5 L-10,4 L-7,4 L-7,3 L-4,3 L-4,2 L-3,2 L-3,1 L0,1 Z " fill="#AAC4DA" transform="translate(121,36)"/>
<path d="M0,0 L2,0 L2,1 L3,1 L3,2 L4,2 L4,3 L5,3 L5,4 L8,4 L8,5 L9,5 L9,6 L11,6 L11,7 L12,7 L12,8 L15,8 L15,9 L31,9 L31,8 L35,8 L35,7 L39,7 L39,9 L33,9 L33,10 L14,10 L14,9 L11,9 L11,8 L10,8 L10,7 L7,7 L7,6 L4,6 L4,4 L3,4 L3,3 L2,3 L2,2 L1,2 L1,1 L0,1 Z " fill="#7397B4" transform="translate(118,229)"/>
<path d="M0,0 L2,0 L2,1 L1,1 L1,2 L0,2 L0,3 L-2,3 L-2,5 L-8,5 L-8,6 L-9,6 L-9,7 L-10,7 L-10,8 L-14,8 L-14,9 L-20,9 L-20,10 L-22,10 L-22,8 L-19,8 L-19,7 L-15,7 L-15,6 L-13,6 L-13,5 L-11,5 L-11,4 L-8,4 L-8,3 L-4,3 L-4,1 L0,1 Z " fill="#D7DAE0" transform="translate(65,54)"/>
<path d="M0,0 L18,0 L18,1 L22,1 L22,2 L11,2 L11,1 L4,1 L4,2 L-2,2 L-2,3 L-3,3 L-3,5 L-7,5 L-7,6 L-9,6 L-9,7 L-11,7 L-11,6 L-10,6 L-10,5 L-9,5 L-9,3 L-4,3 L-4,2 L-3,2 L-3,1 L0,1 Z " fill="#7D9DB7" transform="translate(132,176)"/>
<path d="M0,0 L4,0 L4,2 L0,2 L0,3 L2,3 L2,4 L-4,4 L-4,6 L-10,6 L-10,7 L-14,7 L-14,9 L-15,9 L-15,10 L-17,10 L-17,8 L-16,8 L-16,7 L-15,7 L-15,6 L-14,6 L-14,5 L-11,5 L-11,4 L-7,4 L-7,3 L-5,3 L-5,2 L-4,2 L-4,1 L0,1 Z " fill="#D7DAE1" transform="translate(39,64)"/>
<path d="M0,0 L4,0 L4,1 L2,1 L2,2 L-2,2 L-2,3 L-3,3 L-3,4 L-6,4 L-6,5 L-9,5 L-9,6 L-12,6 L-12,7 L-16,7 L-16,6 L-18,6 L-18,5 L-14,5 L-14,3 L-12,3 L-12,2 L-6,2 L-6,1 L0,1 Z " fill="#96B9D5" transform="translate(57,61)"/>
<path d="M0,0 L1,0 L1,2 L0,2 L0,4 L-1,4 L-1,6 L-3,6 L-3,10 L-4,10 L-4,26 L-6,26 L-6,8 L-4,8 L-4,5 L-3,5 L-3,4 L-2,4 L-2,1 L0,1 Z " fill="#ACBFCD" transform="translate(114,189)"/>
<path d="M0,0 L1,0 L1,2 L0,2 L0,5 L1,5 L1,6 L0,6 L0,7 L-1,7 L-1,17 L0,17 L0,22 L1,22 L1,24 L-1,24 L-1,22 L-2,22 L-2,18 L-3,18 L-3,6 L-2,6 L-2,3 L-1,3 L-1,1 L0,1 Z " fill="#BAC9D4" transform="translate(124,196)"/>
<path d="M0,0 L3,0 L3,1 L4,1 L4,2 L5,2 L5,6 L6,6 L6,9 L7,9 L7,11 L6,11 L6,10 L5,10 L5,9 L4,9 L4,7 L3,7 L3,6 L2,6 L2,5 L-1,5 L-1,9 L-2,9 L-2,11 L-3,11 L-3,7 L-2,7 L-2,2 L0,2 Z " fill="#799AB5" transform="translate(200,195)"/>
<path d="M0,0 L7,0 L7,1 L6,1 L6,2 L4,2 L4,3 L0,3 L0,4 L-1,4 L-1,5 L-3,5 L-3,6 L-4,6 L-4,7 L-9,7 L-9,5 L-7,5 L-7,3 L-5,3 L-5,2 L-3,2 L-3,1 L0,1 Z " fill="#48799E" transform="translate(112,86)"/>
<path d="M0,0 L1,0 L1,35 L3,35 L3,37 L2,37 L2,38 L1,38 L1,39 L-1,39 L-1,35 L0,35 Z " fill="#88BEC6" transform="translate(25,194)"/>
<path d="M0,0 L7,0 L7,1 L5,1 L5,2 L3,2 L3,3 L2,3 L2,4 L0,4 L0,5 L-4,5 L-4,6 L-8,6 L-8,5 L-7,5 L-7,2 L-4,2 L-4,1 L0,1 Z " fill="#ACD9D6" transform="translate(36,126)"/>
<path d="M0,0 L4,0 L4,1 L2,1 L2,3 L-5,3 L-5,4 L-8,4 L-8,5 L-9,5 L-9,6 L-11,6 L-11,7 L-16,7 L-16,8 L-18,8 L-18,6 L-15,6 L-15,4 L-11,4 L-11,3 L-7,3 L-7,2 L-3,2 L-3,1 L0,1 Z " fill="#A1D5D3" transform="translate(125,93)"/>
<path d="M0,0 L2,0 L2,1 L1,1 L1,2 L-1,2 L-1,3 L-2,3 L-2,4 L-4,4 L-4,5 L-5,5 L-5,7 L-6,7 L-6,8 L-7,8 L-7,9 L-8,9 L-8,10 L-10,10 L-10,11 L-11,11 L-11,12 L-12,12 L-12,13 L-13,13 L-13,11 L-12,11 L-12,10 L-11,10 L-11,9 L-9,9 L-9,5 L-8,5 L-8,3 L-6,3 L-6,2 L-4,2 L-4,1 L0,1 Z " fill="#447B9E" transform="translate(76,162)"/>
<path d="M0,0 L2,0 L2,1 L1,1 L1,2 L-3,2 L-3,3 L-5,3 L-5,4 L-7,4 L-7,5 L-8,5 L-8,6 L-10,6 L-10,7 L-18,7 L-18,8 L-20,8 L-20,7 L-19,7 L-19,6 L-16,6 L-16,5 L-13,5 L-13,4 L-9,4 L-9,3 L-7,3 L-7,2 L-5,2 L-5,1 L0,1 Z " fill="#9EB3C4" transform="translate(141,78)"/>
<path d="M0,0 L19,0 L19,1 L8,1 L8,2 L4,2 L4,3 L-6,3 L-6,2 L-3,2 L-3,1 L0,1 Z " fill="#05638A" transform="translate(106,147)"/>
<path d="M0,0 L2,0 L2,1 L1,1 L1,2 L-1,2 L-1,3 L0,3 L0,4 L-1,4 L-1,5 L-4,5 L-4,6 L-5,6 L-5,7 L-9,7 L-9,6 L-13,6 L-13,5 L-11,5 L-11,4 L-8,4 L-8,3 L-5,3 L-5,2 L-2,2 L-2,1 L0,1 Z " fill="#D4DBE4" transform="translate(101,40)"/>
<path d="M0,0 L2,0 L2,4 L4,4 L4,10 L-7,10 L-7,8 L-8,8 L-8,7 L-6,7 L-6,8 L2,8 L2,5 L1,5 L1,2 L0,2 Z " fill="#88A6BD" transform="translate(228,229)"/>
<path d="M0,0 L4,0 L4,1 L11,1 L11,2 L9,2 L9,3 L5,3 L5,4 L-4,4 L-4,3 L-3,3 L-3,1 L0,1 Z " fill="#B6CADB" transform="translate(150,21)"/>
<path d="M0,0 L1,0 L1,26 L0,26 L0,27 L-2,27 L-2,28 L-6,28 L-6,27 L-4,27 L-4,25 L0,25 Z " fill="#3C6D94" transform="translate(163,208)"/>
<path d="M0,0 L3,0 L3,1 L2,1 L2,4 L1,4 L1,5 L0,5 L0,6 L-1,6 L-1,8 L-2,8 L-2,9 L-3,9 L-3,10 L-4,10 L-4,12 L-5,12 L-5,13 L-6,13 L-6,14 L-7,14 L-7,12 L-6,12 L-6,11 L-5,11 L-5,6 L-4,6 L-4,5 L-3,5 L-3,4 L-2,4 L-2,3 L0,3 Z " fill="#3C7198" transform="translate(51,183)"/>
<path d="M0,0 L5,0 L5,1 L10,1 L10,2 L14,2 L14,3 L18,3 L18,4 L19,4 L19,5 L21,5 L21,6 L18,6 L18,5 L17,5 L17,4 L10,4 L10,3 L3,3 L3,1 L0,1 Z " fill="#9CB5C8" transform="translate(122,150)"/>
<path d="M0,0 L4,0 L4,1 L5,1 L5,2 L-2,2 L-2,7 L-6,7 L-6,8 L-9,8 L-9,6 L-6,6 L-6,3 L-4,3 L-4,2 L-3,2 L-3,1 L0,1 Z " fill="#A5D5D3" transform="translate(56,117)"/>
<path d="M0,0 L3,0 L3,2 L2,2 L2,3 L-1,3 L-1,4 L-2,4 L-2,6 L-5,6 L-5,7 L-8,7 L-8,8 L-11,8 L-11,7 L-10,7 L-10,6 L-8,6 L-8,5 L-7,5 L-7,4 L-4,4 L-4,3 L-3,3 L-3,2 L-1,2 L-1,1 L0,1 Z " fill="#18628D" transform="translate(84,155)"/>
<path d="M0,0 L2,0 L2,2 L0,2 L0,3 L-2,3 L-2,4 L-3,4 L-3,5 L-5,5 L-5,6 L-10,6 L-10,7 L-14,7 L-14,6 L-11,6 L-11,4 L-8,4 L-8,3 L-4,3 L-4,2 L-2,2 L-2,1 L0,1 Z " fill="#AFBECC" transform="translate(54,111)"/>
<path d="M0,0 L6,0 L6,1 L5,1 L5,2 L2,2 L2,3 L-2,3 L-2,4 L-3,4 L-3,5 L-5,5 L-5,6 L-9,6 L-9,7 L-11,7 L-11,6 L-10,6 L-10,5 L-7,5 L-7,4 L-4,4 L-4,1 L0,1 Z " fill="#517DA1" transform="translate(150,72)"/>
<path d="M0,0 L4,0 L4,1 L6,1 L6,2 L7,2 L7,14 L5,14 L5,3 L4,3 L4,2 L2,2 L2,1 L0,1 Z " fill="#BAC9D4" transform="translate(159,179)"/>
<path d="M0,0 L3,0 L3,2 L1,2 L1,3 L0,3 L0,6 L-7,6 L-7,5 L-9,5 L-9,4 L-6,4 L-6,3 L-3,3 L-3,2 L-1,2 L-1,1 L0,1 Z " fill="#D3DAE2" transform="translate(161,16)"/>
<path d="M0,0 L1,0 L1,1 L2,1 L2,6 L-9,6 L-9,1 L-8,1 L-8,4 L0,4 Z " fill="#BAC9D4" transform="translate(205,205)"/>
<path d="M0,0 L1,0 L1,3 L2,3 L2,5 L1,5 L1,6 L0,6 L0,8 L-1,8 L-1,11 L-2,11 L-2,13 L-3,13 L-3,14 L-4,14 L-4,16 L-5,16 L-5,13 L-4,13 L-4,12 L-3,12 L-3,6 L-2,6 L-2,5 L-1,5 L-1,2 L0,2 Z " fill="#3C759A" transform="translate(37,202)"/>
<path d="M0,0 L1,0 L1,1 L7,1 L7,2 L6,2 L6,3 L0,3 L0,4 L-3,4 L-3,5 L-4,5 L-4,6 L-7,6 L-7,7 L-9,7 L-9,5 L-7,5 L-7,4 L-4,4 L-4,3 L-2,3 L-2,2 L-1,2 L-1,1 L0,1 Z " fill="#B4CAE0" transform="translate(132,29)"/>
<path d="M0,0 L2,0 L2,2 L0,2 L0,4 L-4,4 L-4,5 L-8,5 L-8,6 L-11,6 L-11,7 L-15,7 L-15,6 L-12,6 L-12,5 L-11,5 L-11,4 L-7,4 L-7,3 L-3,3 L-3,2 L-2,2 L-2,1 L0,1 Z " fill="#D9E2E3" transform="translate(40,122)"/>
<path d="M0,0 L4,0 L4,1 L1,1 L1,2 L-1,2 L-1,3 L-3,3 L-3,5 L-5,5 L-5,7 L-10,7 L-10,6 L-11,6 L-11,5 L-10,5 L-10,4 L-5,4 L-5,3 L-4,3 L-4,2 L-2,2 L-2,1 L0,1 Z " fill="#065690" transform="translate(108,86)"/>
<path d="M0,0 L4,0 L4,1 L2,1 L2,3 L-3,3 L-3,4 L-6,4 L-6,5 L-8,5 L-8,6 L-12,6 L-12,7 L-14,7 L-14,6 L-13,6 L-13,5 L-10,5 L-10,4 L-7,4 L-7,3 L-4,3 L-4,2 L-3,2 L-3,1 L0,1 Z " fill="#699FC7" transform="translate(121,36)"/>
<path d="M0,0 L4,0 L4,1 L5,1 L5,2 L10,2 L10,3 L11,3 L11,4 L12,4 L12,6 L13,6 L13,8 L12,8 L12,7 L11,7 L11,6 L10,6 L10,5 L7,5 L7,4 L5,4 L5,3 L4,3 L4,2 L3,2 L3,1 L0,1 Z " fill="#43799E" transform="translate(143,156)"/>
<path d="M0,0 L1,0 L1,1 L4,1 L4,2 L1,2 L1,3 L0,3 L0,4 L-3,4 L-3,5 L-6,5 L-6,6 L-11,6 L-11,5 L-10,5 L-10,4 L-7,4 L-7,3 L-3,3 L-3,2 L0,2 Z " fill="#C5D4E3" transform="translate(117,35)"/>
<path d="M0,0 L4,0 L4,1 L1,1 L1,2 L0,2 L0,3 L-3,3 L-3,4 L-8,4 L-8,5 L-12,5 L-12,4 L-9,4 L-9,3 L-8,3 L-8,2 L-5,2 L-5,1 L0,1 Z " fill="#4487B7" transform="translate(155,24)"/>
<path d="M0,0 L1,0 L1,15 L2,15 L2,18 L1,18 L1,20 L-1,20 L-1,16 L0,16 Z " fill="#378DA1" transform="translate(27,209)"/>
<path d="M0,0 L2,0 L2,1 L3,1 L3,12 L0,12 L0,11 L-2,11 L-2,9 L2,9 L2,3 L1,3 L1,1 L0,1 Z " fill="#42729A" transform="translate(161,181)"/>
<path d="M0,0 L2,0 L2,1 L1,1 L1,2 L0,2 L0,3 L-1,3 L-1,4 L-2,4 L-2,5 L-3,5 L-3,6 L-4,6 L-4,7 L-6,7 L-6,8 L-7,8 L-7,4 L-5,4 L-5,3 L-4,3 L-4,2 L-1,2 L-1,1 L0,1 Z " fill="#4A7DA0" transform="translate(61,175)"/>
<path d="M0,0 L3,0 L3,1 L2,1 L2,2 L1,2 L1,3 L-1,3 L-1,4 L-4,4 L-4,5 L-6,5 L-6,7 L-11,7 L-11,6 L-8,6 L-8,5 L-7,5 L-7,4 L-6,4 L-6,3 L-3,3 L-3,2 L-1,2 L-1,1 L0,1 Z " fill="#D2D8DF" transform="translate(129,29)"/>
<path d="M0,0 L1,0 L1,15 L-2,15 L-2,14 L-3,14 L-3,13 L-4,13 L-4,11 L-3,11 L-3,12 L-1,12 L-1,13 L0,13 Z " fill="#A1B5C3" transform="translate(164,157)"/>
<path d="M0,0 L2,0 L2,3 L1,3 L1,4 L-3,4 L-3,5 L-7,5 L-7,3 L-3,3 L-3,1 L0,1 Z " fill="#0D578E" transform="translate(35,115)"/>
<path d="M0,0 L4,0 L4,1 L3,1 L3,2 L2,2 L2,3 L-1,3 L-1,4 L-7,4 L-7,3 L-6,3 L-6,2 L-3,2 L-3,1 L0,1 Z " fill="#9FB4C5" transform="translate(64,107)"/>
<path d="M0,0 L1,0 L1,4 L0,4 L0,6 L-2,6 L-2,7 L-3,7 L-3,9 L-4,9 L-4,11 L-5,11 L-5,12 L-6,12 L-6,10 L-5,10 L-5,7 L-4,7 L-4,6 L-3,6 L-3,5 L-2,5 L-2,2 L0,2 Z " fill="#5782A5" transform="translate(192,191)"/>
<path d="M0,0 L7,0 L7,1 L5,1 L5,2 L3,2 L3,3 L2,3 L2,4 L0,4 L0,5 L-4,5 L-4,4 L-2,4 L-2,3 L0,3 Z " fill="#7BC8C6" transform="translate(36,126)"/>
<path d="M0,0 L6,0 L6,1 L4,1 L4,2 L2,2 L2,4 L-3,4 L-3,1 L0,1 Z " fill="#AEDAD6" transform="translate(130,89)"/>
<path d="M0,0 L1,0 L1,4 L0,4 L0,5 L-1,5 L-1,6 L-2,6 L-2,8 L-3,8 L-3,10 L-4,10 L-4,11 L-5,11 L-5,8 L-4,8 L-4,5 L-3,5 L-3,4 L-1,4 L-1,1 L0,1 Z " fill="#97AEC1" transform="translate(181,214)"/>
<path d="M0,0 L1,0 L1,4 L-2,4 L-2,7 L-4,7 L-4,8 L-5,8 L-5,9 L-6,9 L-6,7 L-5,7 L-5,5 L-4,5 L-4,4 L-3,4 L-3,3 L-2,3 L-2,2 L-1,2 L-1,1 L0,1 Z " fill="#02738E" transform="translate(53,179)"/>
<path d="M0,0 L3,0 L3,2 L0,2 L0,4 L-4,4 L-4,3 L-7,3 L-7,2 L-4,2 L-4,1 L0,1 Z " fill="#D7DBE2" transform="translate(76,50)"/>
<path d="M0,0 L7,0 L7,1 L5,1 L5,2 L3,2 L3,3 L0,3 L0,4 L-3,4 L-3,2 L0,2 Z " fill="#B6CDE1" transform="translate(79,50)"/>
<path d="M0,0 L1,0 L1,9 L5,9 L5,10 L2,10 L2,11 L-2,11 L-2,10 L-1,10 L-1,8 L0,8 Z " fill="#3471A1" transform="translate(27,111)"/>
<path d="M0,0 L6,0 L6,3 L-1,3 L-1,1 L0,1 Z " fill="#07558E" transform="translate(51,108)"/>
<path d="M0,0 L4,0 L4,1 L2,1 L2,2 L1,2 L1,3 L-3,3 L-3,4 L-7,4 L-7,3 L-5,3 L-5,2 L-4,2 L-4,1 L0,1 Z " fill="#A6B8C8" transform="translate(93,96)"/>
<path d="M0,0 L4,0 L4,1 L2,1 L2,3 L-5,3 L-5,4 L-7,4 L-7,2 L-3,2 L-3,1 L0,1 Z " fill="#72C4C2" transform="translate(125,93)"/>
<path d="M0,0 L2,0 L2,1 L4,1 L4,3 L1,3 L1,4 L-3,4 L-3,1 L0,1 Z " fill="#306A95" transform="translate(96,92)"/>
<path d="M0,0 L3,0 L3,1 L1,1 L1,2 L-1,2 L-1,3 L-5,3 L-5,4 L-8,4 L-8,2 L-6,2 L-6,1 L0,1 Z " fill="#225F91" transform="translate(133,79)"/>
<path d="M0,0 L2,0 L2,3 L1,3 L1,4 L-5,4 L-5,5 L-4,5 L-4,6 L-7,6 L-7,5 L-6,5 L-6,3 L-3,3 L-3,2 L0,2 Z " fill="#C4DDDE" transform="translate(160,76)"/>
<path d="M0,0 L1,0 L1,2 L0,2 L0,5 L-1,5 L-1,6 L-2,6 L-2,7 L-4,7 L-4,8 L-6,8 L-6,6 L-4,6 L-4,5 L-3,5 L-3,4 L-2,4 L-2,2 L-1,2 L-1,1 L0,1 Z " fill="#C0CAD3" transform="translate(49,191)"/>
<path d="M0,0 L4,0 L4,1 L5,1 L5,2 L6,2 L6,3 L7,3 L7,4 L2,4 L2,3 L1,3 L1,1 L0,1 Z " fill="#037490" transform="translate(146,154)"/>
<path d="M0,0 L1,0 L1,1 L0,1 Z M-3,1 L0,1 L0,4 L-2,4 L-2,5 L-6,5 L-6,3 L-4,3 L-4,2 L-3,2 Z " fill="#B1DBD9" transform="translate(143,84)"/>
<path d="M0,0 L1,0 L1,4 L0,4 L0,5 L-1,5 L-1,6 L-2,6 L-2,7 L-3,7 L-3,8 L-5,8 L-5,7 L-4,7 L-4,6 L-3,6 L-3,5 L-2,5 L-2,2 L-1,2 L-1,1 L0,1 Z " fill="#B6C3CF" transform="translate(55,182)"/>
<path d="M0,0 L6,0 L6,3 L2,3 L2,2 L-1,2 L-1,1 L0,1 Z " fill="#D1E3E0" transform="translate(58,115)"/>
</svg>
