<?xml version="1.0" encoding="UTF-8"?>
<svg version="1.1" xmlns="http://www.w3.org/2000/svg" width="204" height="192">
<path d="M0 0 C67.32 0 134.64 0 204 0 C204 63.36 204 126.72 204 192 C136.68 192 69.36 192 0 192 C0 128.64 0 65.28 0 0 Z " fill="#FCFDFD" transform="translate(0,0)"/>
<path d="M0 0 C0.33 0 0.66 0 1 0 C1 23.43 1 46.86 1 71 C-1.31 69.02 -3.62 67.04 -6 65 C-16.4692563 57.4188144 -28.15628229 54.61461022 -41 56 C-60.82344704 59.6966801 -75.09381848 74.33101925 -86.25585938 90.16186523 C-88.49561781 93.44459643 -90.20610483 96.06099579 -91 100 C-91.66 100 -92.32 100 -93 100 C-93.17015625 100.61746094 -93.3403125 101.23492187 -93.515625 101.87109375 C-95.22185424 107.8338204 -97.33581117 113.40114631 -100 119 C-101.17926723 115.28370811 -101.11595285 111.77212815 -101.10107422 107.89233398 C-101.09949814 107.18455811 -101.09792206 106.47678223 -101.09629822 105.74755859 C-101.08882429 103.41365549 -101.07282019 101.07993731 -101.0546875 98.74609375 C-101.04897861 97.94812944 -101.04326973 97.15016514 -101.03738785 96.3280201 C-101.00589851 92.10995424 -100.96698102 87.89202372 -100.92285156 83.67407227 C-100.87896911 79.31372473 -100.86326278 74.95373767 -100.85362053 70.59319973 C-100.84077502 67.24128423 -100.80610097 63.88984777 -100.76550674 60.53816414 C-100.74999398 58.93024604 -100.74292567 57.32222373 -100.74441147 55.71423149 C-100.74459037 53.46796818 -100.7137517 51.22415913 -100.67529297 48.97827148 C-100.66561493 47.70016098 -100.65593689 46.42205048 -100.64596558 45.10520935 C-100 42 -100 42 -97.64378357 40.14804077 C-96.77133499 39.76918732 -95.89888641 39.39033386 -95 39 C-94.01797607 38.55551514 -93.03595215 38.11103027 -92.02416992 37.65307617 C-90.39378784 36.979823 -90.39378784 36.979823 -88.73046875 36.29296875 C-87.51939453 35.79168457 -86.30832031 35.29040039 -85.06054688 34.77392578 C-83.76961601 34.2449103 -82.47859878 33.71610554 -81.1875 33.1875 C-79.86650384 32.64314555 -78.54554042 32.09871166 -77.22460938 31.55419922 C-70.52359505 28.80045988 -63.80685387 26.10805256 -57 23.625 C-51.29395754 21.54009987 -45.85169624 19.11720233 -40.3671875 16.51171875 C-35.86730918 14.49147176 -31.27673078 12.77652823 -26.64257812 11.09179688 C-22.36015533 9.53336167 -18.18425428 7.80339466 -14 6 C-10.57292604 4.67363804 -7.13513644 3.37880983 -3.6953125 2.0859375 C-1.12383296 1.25437418 -1.12383296 1.25437418 0 0 Z " fill="#019D9D" transform="translate(127,58)"/>
<path d="M0 0 C0 12.54 0 25.08 0 38 C-7.13518134 40.97299222 -14.26987999 43.94147997 -21.42578125 46.86328125 C-22.28046997 47.21271286 -23.13515869 47.56214447 -24.01574707 47.92216492 C-27.74192419 49.4454928 -31.46853345 50.96776201 -35.19515991 52.48999023 C-45.90780025 56.86615313 -56.61716858 61.24964653 -67.3125 65.66796875 C-69.96496863 66.76215933 -72.61753194 67.8561201 -75.27011108 68.95004272 C-76.95249495 69.6448346 -78.63432821 70.34096136 -80.31558228 71.03848267 C-82.65303037 72.00817175 -84.9923273 72.97326932 -87.33203125 73.9375 C-88.00931274 74.22002121 -88.68659424 74.50254242 -89.38439941 74.79362488 C-93.58096091 76.51679749 -97.5915641 77.74044689 -102 79 C-101.67 66.46 -101.34 53.92 -101 41 C-94.07 38.525 -94.07 38.525 -87 36 C-84.14143681 34.57177091 -84.14143681 34.57177091 -81.30859375 33.09375 C-78.01659047 31.53408686 -74.6050369 30.31402014 -71.1875 29.0625 C-66.53994929 27.36024276 -61.9827771 25.60914323 -57.5 23.5 C-53.09406734 21.43285565 -48.62434245 19.68368317 -44.0625 18 C-35.30830947 14.76349769 -26.73593247 11.1951496 -18.1796875 7.46484375 C-17.13498291 7.00948242 -16.09027832 6.55412109 -15.01391602 6.08496094 C-12.89364716 5.1594352 -10.77432858 4.23172918 -8.65600586 3.30175781 C-7.19626343 2.66318848 -7.19626343 2.66318848 -5.70703125 2.01171875 C-4.38409058 1.43103638 -4.38409058 1.43103638 -3.03442383 0.83862305 C-1 0 -1 0 0 0 Z " fill="#0163A5" transform="translate(128,12)"/>
<path d="M0 0 C0 2.97 0 5.94 0 9 C-4.875 7.125 -4.875 7.125 -6 6 C-17.38470096 4.30975126 -17.38470096 4.30975126 -27.8125 8.25 C-31.41647174 13.56111625 -31.82926705 19.78049715 -31 26 C-28.38679161 31.13308791 -25.46062759 34.1797908 -20 36 C-16.15716316 36.13973952 -12.6828631 36.17851619 -9 35 C-8.67 32.36 -8.34 29.72 -8 27 C-11.63 27 -15.26 27 -19 27 C-19 24.69 -19 22.38 -19 20 C-12.73 20 -6.46 20 0 20 C0 26.6 0 33.2 0 40 C-8.91293587 43.96130483 -17.01378363 46.49887496 -26.56640625 43.08203125 C-33.20506175 39.18953685 -37.68000856 33.32628876 -40 26 C-40.93206319 18.31367071 -39.7781652 11.30653251 -35.55859375 4.765625 C-26.93752938 -6.1957283 -11.49019156 -7.20953196 0 0 Z " fill="#104F89" transform="translate(129,138)"/>
<path d="M0 0 C1.4540625 0.0309375 1.4540625 0.0309375 2.9375 0.0625 C5.84978629 6.14479703 8.44339409 12.28887562 10.75 18.625 C13.31471909 25.66684888 16.26887128 32.49025128 19.39770508 39.29907227 C21.9375 44.86505855 21.9375 44.86505855 21.9375 47.0625 C19.2975 47.0625 16.6575 47.0625 13.9375 47.0625 C13.09985732 45.10600603 12.26750941 43.14724444 11.4375 41.1875 C10.9734375 40.09695312 10.509375 39.00640625 10.03125 37.8828125 C8.9375 35.0625 8.9375 35.0625 8.9375 33.0625 C2.9975 33.0625 -2.9425 33.0625 -9.0625 33.0625 C-9.51625 34.444375 -9.97 35.82625 -10.4375 37.25 C-11.54225443 40.56949909 -12.70882091 43.83449601 -14.0625 47.0625 C-16.7025 47.0625 -19.3425 47.0625 -22.0625 47.0625 C-20.10809637 40.98228269 -17.93248235 35.0388441 -15.5234375 29.125 C-15.03395126 27.91577881 -15.03395126 27.91577881 -14.53457642 26.68212891 C-13.85188545 24.99765759 -13.16782005 23.31374269 -12.48242188 21.63037109 C-11.42954957 19.042962 -10.38248071 16.45325584 -9.3359375 13.86328125 C-8.66961304 12.22121526 -8.0029585 10.57928317 -7.3359375 8.9375 C-6.86563614 7.77359741 -6.86563614 7.77359741 -6.38583374 6.58618164 C-3.72786112 0.0760788 -3.72786112 0.0760788 0 0 Z " fill="#0E4D87" transform="translate(157.0625,134.9375)"/>
<path d="M0 0 C2.64 0 5.28 0 8 0 C8 15.84 8 31.68 8 48 C5.36 48 2.72 48 0 48 C0 32.16 0 16.32 0 0 Z " fill="#1A558D" transform="translate(73,134)"/>
<path d="M0 0 C0.33 0 0.66 0 1 0 C1 23.43 1 46.86 1 71 C-1.31 69.02 -3.62 67.04 -6 65 C-16.4692563 57.4188144 -28.15628229 54.61461022 -41 56 C-59.74658825 59.49586727 -74.16993908 73.02432043 -84.75 88.1875 C-86.52429769 90.77692005 -88.26862418 93.38144756 -90 96 C-90.33 95.34 -90.66 94.68 -91 94 C-79.92569045 76.10340806 -65.31505246 59.59624126 -44.4375 53.6875 C-31.50547636 51.10109527 -19.18559843 53.11792275 -8 60 C-5.96530468 61.6270003 -3.99013614 63.31813951 -2 65 C-1.98969254 64.20042374 -1.97938507 63.40084747 -1.96876526 62.57704163 C-1.87095918 55.05732704 -1.76846935 47.53769807 -1.66066074 40.01812077 C-1.60539645 36.1518399 -1.551971 32.28555152 -1.50268555 28.41918945 C-1.4550935 24.69089913 -1.40275285 20.96270348 -1.34705925 17.23452568 C-1.32661222 15.80913067 -1.30790309 14.38370968 -1.29092598 12.95826912 C-1.26693404 10.96829459 -1.23629864 8.97840345 -1.20532227 6.98852539 C-1.18977798 5.85379288 -1.1742337 4.71906036 -1.15821838 3.54994202 C-1 1 -1 1 0 0 Z " fill="#154F88" transform="translate(127,58)"/>
<path d="M0 0 C0.33 0 0.66 0 1 0 C1 12.54 1 25.08 1 38 C-6.13518134 40.97299222 -13.26987999 43.94147997 -20.42578125 46.86328125 C-21.28046997 47.21271286 -22.13515869 47.56214447 -23.01574707 47.92216492 C-26.74192419 49.4454928 -30.46853345 50.96776201 -34.19515991 52.48999023 C-44.90780025 56.86615313 -55.61716858 61.24964653 -66.3125 65.66796875 C-68.96496863 66.76215933 -71.61753194 67.8561201 -74.27011108 68.95004272 C-75.95249495 69.6448346 -77.63432821 70.34096136 -79.31558228 71.03848267 C-81.65303037 72.00817175 -83.9923273 72.97326932 -86.33203125 73.9375 C-87.00931274 74.22002121 -87.68659424 74.50254242 -88.38439941 74.79362488 C-92.54288779 76.50116408 -96.66633881 77.8399672 -101 79 C-97.88527822 75.59200799 -94.22423134 74.25343864 -90 72.6015625 C-88.81361938 72.1263063 -88.81361938 72.1263063 -87.60327148 71.64144897 C-85.07168544 70.62867138 -82.5361277 69.62634398 -80 68.625 C-76.68602318 67.30837462 -73.37378909 65.98743186 -70.0625 64.6640625 C-69.25391541 64.34139908 -68.44533081 64.01873566 -67.61224365 63.68629456 C-63.57655309 62.06712239 -59.58379623 60.40251856 -55.640625 58.56640625 C-47.76066856 54.90024891 -39.66600371 51.72518131 -31.61035156 48.46948242 C-28.74105075 47.30888012 -25.87438287 46.14193672 -23.0078125 44.97460938 C-21.16682243 44.22878207 -19.3256818 43.48332628 -17.484375 42.73828125 C-16.63631287 42.39243484 -15.78825073 42.04658844 -14.91448975 41.69026184 C-10.32345526 39.84170953 -5.78668504 38.26179076 -1 37 C-1.00523682 35.98574951 -1.01047363 34.97149902 -1.01586914 33.92651367 C-1.03396807 30.16382733 -1.04544994 26.40114485 -1.05493164 22.63842773 C-1.05996065 21.00984042 -1.06678465 19.38125763 -1.07543945 17.75268555 C-1.08756769 15.41193528 -1.09324263 13.0712447 -1.09765625 10.73046875 C-1.10281754 10.00224411 -1.10797882 9.27401947 -1.11329651 8.52372742 C-1.11364279 5.40397712 -0.99455604 2.98366812 0 0 Z " fill="#084685" transform="translate(127,12)"/>
<path d="M0 0 C-3.05926974 2.03951316 -5.99437935 3.37288739 -9.375 4.8125 C-10.49648437 5.29332031 -11.61796875 5.77414063 -12.7734375 6.26953125 C-16.19066593 7.69262563 -19.64017379 9.02170194 -23.09765625 10.34375 C-30.12438097 13.03237229 -37.09691252 15.84479773 -44.0625 18.6875 C-45.25810547 19.17283203 -46.45371094 19.65816406 -47.68554688 20.15820312 C-48.83216797 20.62548828 -49.97878906 21.09277344 -51.16015625 21.57421875 C-52.18761963 21.99276123 -53.21508301 22.41130371 -54.27368164 22.8425293 C-56.55356682 23.81046479 -58.78463989 24.89231994 -61 26 C-61.33 50.09 -61.66 74.18 -62 99 C-62.33 99 -62.66 99 -63 99 C-63 74.25 -63 49.5 -63 24 C-36.56776685 12.50772472 -36.56776685 12.50772472 -26.6875 8.625 C-25.68267578 8.22667969 -24.67785156 7.82835938 -23.64257812 7.41796875 C-21.68942903 6.64381609 -19.7349087 5.87311089 -17.77880859 5.10644531 C-15.91922336 4.36600951 -14.06782415 3.60469051 -12.22509766 2.82324219 C-11.35288574 2.45618164 -10.48067383 2.08912109 -9.58203125 1.7109375 C-8.81737549 1.3814209 -8.05271973 1.0519043 -7.26489258 0.71240234 C-4.73647476 -0.08288958 -2.63493993 -0.12728617 0 0 Z " fill="#A8D9D8" transform="translate(89,74)"/>
<path d="M0 0 C0.33 0 0.66 0 1 0 C1 23.43 1 46.86 1 71 C0.01 70.34 -0.98 69.68 -2 69 C-2.32952881 66.18467712 -2.32952881 66.18467712 -2.26464844 62.54663086 C-2.25693924 61.8847023 -2.24923004 61.22277374 -2.24128723 60.54078674 C-2.21196258 58.34830535 -2.16093932 56.15690607 -2.109375 53.96484375 C-2.08388362 52.44554036 -2.05958661 50.9262165 -2.03643799 49.40687561 C-1.98483118 46.22144329 -1.92331362 43.03641396 -1.85400391 39.85131836 C-1.76511711 35.75998045 -1.69368008 31.668585 -1.62871933 27.57680416 C-1.56606611 23.68519881 -1.49409651 19.79378105 -1.421875 15.90234375 C-1.40892143 15.15508467 -1.39596786 14.40782558 -1.38262177 13.63792229 C-1.34458213 11.53312714 -1.29985155 9.42858809 -1.25292969 7.32397461 C-1.22833679 6.12421494 -1.2037439 4.92445526 -1.17840576 3.68833923 C-1 1 -1 1 0 0 Z " fill="#025386" transform="translate(127,58)"/>
<path d="M0 0 C0.66 0 1.32 0 2 0 C2.67305018 1.60149886 3.33822227 3.20631029 4 4.8125 C4.37125 5.70582031 4.7425 6.59914062 5.125 7.51953125 C6 10 6 10 6 13 C2.7 13 -0.6 13 -4 13 C-3.40895235 8.15340923 -2.02055843 4.39251833 0 0 Z " fill="#E3EAF0" transform="translate(156,148)"/>
<path d="M0 0 C5.1288005 2.31187262 9.44418688 5.77009331 13.81640625 9.26953125 C13.48640625 9.92953125 13.15640625 10.58953125 12.81640625 11.26953125 C12.28273438 10.8828125 11.7490625 10.49609375 11.19921875 10.09765625 C4.2249409 5.22290149 -2.76689119 1.77677763 -11.18359375 0.26953125 C-6.94434859 -2.33774937 -4.54340244 -1.48286905 0 0 Z " fill="#255C8F" transform="translate(111.18359375,113.73046875)"/>
<path d="M0 0 C1 2 1 2 0.109375 4.828125 C-0.33921875 5.95734375 -0.7878125 7.0865625 -1.25 8.25 C-1.68828125 9.36890625 -2.1265625 10.4878125 -2.578125 11.640625 C-3.9301754 14.83502979 -5.41189182 17.91720177 -7 21 C-8.06676357 17.80547317 -7.98898547 16.19831578 -6.6015625 13.14453125 C-6.12976563 12.08782227 -6.12976563 12.08782227 -5.6484375 11.00976562 C-5.31070312 10.28466797 -4.97296875 9.55957031 -4.625 8.8125 C-4.13 7.70745117 -4.13 7.70745117 -3.625 6.58007812 C-1.18147321 1.18147321 -1.18147321 1.18147321 0 0 Z " fill="#2D6595" transform="translate(34,156)"/>
<path d="M0 0 C-3.1989758 2.13265053 -6.49131134 3.65963865 -10 5.1875 C-10.6290625 5.47302734 -11.258125 5.75855469 -11.90625 6.05273438 C-16.64816835 8.11727722 -16.64816835 8.11727722 -20 7 C-17.08838996 5.05892664 -14.33771358 3.74501003 -11.125 2.375 C-10.09632812 1.92898437 -9.06765625 1.48296875 -8.0078125 1.0234375 C-5.10187072 0.0346625 -3.0363684 -0.21288192 0 0 Z " fill="#B7E0DF" transform="translate(89,74)"/>
</svg>
